<svg version="1.1" id="Layer_1"
	xmlns="http://www.w3.org/2000/svg" x="0" y="0" viewBox="0 0 772 250" xml:space="preserve">
	<linearGradient id="SVGID_1_" gradientUnits="userSpaceOnUse" x1="42.373" y1="-73.393" x2="729.627" y2="323.393">
		<stop offset="0" stop-color="#92278f"/>
		<stop offset=".997" stop-color="#662d91"/>
	</linearGradient>
	<path fill="url(#SVGID_1_)" d="M0 0h772v250H0z"/>
	<path d="M710.3 95c0 8.8-21.9 16-48.9 16s-48.9-7.2-48.9-16V85c0-8.8 21.9-16 48.9-16s48.9 7.2 48.9 16v10zm0 35c0 8.8-21.9 16-48.9 16s-48.9-7.2-48.9-16v-22.5c10.5 7.2 29.8 10.6 48.9 10.6 19.2 0 38.4-3.4 48.9-10.6V130zm0 35c0 8.8-21.9 16-48.9 16s-48.9-7.2-48.9-16v-22.5c10.5 7.2 29.8 10.6 48.9 10.6 19.2 0 38.4-3.4 48.9-10.6V165z" fill="#f1f2f2"/>
</svg>
